<svg xmlns="http://www.w3.org/2000/svg" viewBox="0 0 200 200" role="img">
  <defs><linearGradient id="bg" x1="0" y1="0" x2="1" y2="1"><stop offset="0" stop-color="#c7d2fe"/><stop offset="1" stop-color="#6366f1"/></linearGradient><clipPath id="c"><rect width="200" height="200"/></clipPath></defs>
  <g clip-path="url(#c)">
    <rect width="200" height="200" fill="url(#bg)"/>
    <circle cx="100" cy="76" r="50" fill="#1a110b"/>
    <path d="M86 128h28v22H86z" fill="#633a24"/>
    <path d="M30 200c4-34 28-52 70-52s66 18 70 52z" fill="#ffffff"/>
    <path d="M100 150l-16-4-12 54h28zM100 150l16-4 12 54h-28z" fill="#e8eef0"/>
    <path d="M88 146l12 18 12-18" fill="#7c3aed"/>
    <path d="M78 150c-6 18-2 30 10 34" stroke="#334155" stroke-width="3.5" fill="none" stroke-linecap="round"/>
    <path d="M122 150c6 18 2 30-10 34" stroke="#334155" stroke-width="3.5" fill="none" stroke-linecap="round"/>
    <circle cx="100" cy="186" r="6" fill="#94a3b8" stroke="#334155" stroke-width="2.5"/>
    <ellipse cx="66" cy="98" rx="7" ry="10" fill="#633a24"/><ellipse cx="134" cy="98" rx="7" ry="10" fill="#633a24"/>
    <ellipse cx="100" cy="94" rx="34" ry="40" fill="#7a4a2f"/>
    <ellipse cx="88" cy="94" rx="3.6" ry="4.2" fill="#1f1410"/><ellipse cx="112" cy="94" rx="3.6" ry="4.2" fill="#1f1410"/>
    <path d="M81 85q7-4 14 0M105 85q7-4 14 0" stroke="#1f1410" stroke-width="2.6" fill="none" stroke-linecap="round"/>
    <path d="M97 99q3 9 6 0" stroke="#633a24" stroke-width="2.6" fill="none" stroke-linecap="round"/>
    <path d="M89 113q11 9 22 0" stroke="#5b2a1e" stroke-width="3" fill="none" stroke-linecap="round"/>
    <path d="M66 84c4-22 18-32 34-32s30 10 34 32c-8-8-20-12-34-12s-26 4-34 12z" fill="#1a110b"/>
    <circle cx="66" cy="110" r="3" fill="#fbbf24"/><circle cx="134" cy="110" r="3" fill="#fbbf24"/>
  </g>
</svg>
